<mxfile host="Electron" agent="Mozilla/5.0 (Windows NT 10.0; Win64; x64) AppleWebKit/537.36 (KHTML, like Gecko) draw.io/28.1.2 Chrome/138.0.7204.243 Electron/37.4.0 Safari/537.36" version="28.1.2">
  <diagram name="หน้า-1" id="5W7M6bj4PBa3VC3lxNan">
    <mxGraphModel dx="1678" dy="989" grid="1" gridSize="10" guides="1" tooltips="1" connect="1" arrows="1" fold="1" page="1" pageScale="1" pageWidth="1654" pageHeight="1169" math="0" shadow="0">
      <root>
        <mxCell id="0" />
        <mxCell id="1" parent="0" />
        <mxCell id="DwPkwXwsCmRvW5p9e_Te-1" value="A0 = {1, 2, 3, ..., 98, 99, 100}" style="text;html=1;align=left;verticalAlign=middle;whiteSpace=wrap;rounded=0;" vertex="1" parent="1">
          <mxGeometry x="720" y="440" width="250" height="30" as="geometry" />
        </mxCell>
        <mxCell id="DwPkwXwsCmRvW5p9e_Te-2" value="A1 = {1-25, 26-50, 51-75, 76-100}" style="text;html=1;align=left;verticalAlign=middle;whiteSpace=wrap;rounded=0;" vertex="1" parent="1">
          <mxGeometry x="720" y="400" width="250" height="30" as="geometry" />
        </mxCell>
        <mxCell id="DwPkwXwsCmRvW5p9e_Te-3" value="A2 = {1-50, 51-100}" style="text;html=1;align=left;verticalAlign=middle;whiteSpace=wrap;rounded=0;" vertex="1" parent="1">
          <mxGeometry x="720" y="360" width="250" height="30" as="geometry" />
        </mxCell>
        <mxCell id="DwPkwXwsCmRvW5p9e_Te-4" value="A3 = { * }" style="text;html=1;align=left;verticalAlign=middle;whiteSpace=wrap;rounded=0;" vertex="1" parent="1">
          <mxGeometry x="720" y="320" width="250" height="30" as="geometry" />
        </mxCell>
        <mxCell id="DwPkwXwsCmRvW5p9e_Te-5" value="" style="endArrow=classic;html=1;rounded=0;" edge="1" parent="1">
          <mxGeometry width="50" height="50" relative="1" as="geometry">
            <mxPoint x="730" y="366" as="sourcePoint" />
            <mxPoint x="730" y="346" as="targetPoint" />
            <Array as="points">
              <mxPoint x="730" y="366" />
            </Array>
          </mxGeometry>
        </mxCell>
        <mxCell id="DwPkwXwsCmRvW5p9e_Te-6" value="" style="endArrow=classic;html=1;rounded=0;" edge="1" parent="1">
          <mxGeometry width="50" height="50" relative="1" as="geometry">
            <mxPoint x="730" y="405" as="sourcePoint" />
            <mxPoint x="730" y="385" as="targetPoint" />
            <Array as="points">
              <mxPoint x="730" y="405" />
            </Array>
          </mxGeometry>
        </mxCell>
        <mxCell id="DwPkwXwsCmRvW5p9e_Te-7" value="" style="endArrow=classic;html=1;rounded=0;" edge="1" parent="1">
          <mxGeometry width="50" height="50" relative="1" as="geometry">
            <mxPoint x="730" y="445" as="sourcePoint" />
            <mxPoint x="730" y="425" as="targetPoint" />
            <Array as="points">
              <mxPoint x="730" y="445" />
            </Array>
          </mxGeometry>
        </mxCell>
        <mxCell id="DwPkwXwsCmRvW5p9e_Te-8" value="S0 = {Female, Male}" style="text;html=1;align=left;verticalAlign=middle;whiteSpace=wrap;rounded=0;" vertex="1" parent="1">
          <mxGeometry x="720" y="560" width="250" height="30" as="geometry" />
        </mxCell>
        <mxCell id="DwPkwXwsCmRvW5p9e_Te-9" value="S1 = { * }" style="text;html=1;align=left;verticalAlign=middle;whiteSpace=wrap;rounded=0;" vertex="1" parent="1">
          <mxGeometry x="720" y="520" width="250" height="30" as="geometry" />
        </mxCell>
        <mxCell id="DwPkwXwsCmRvW5p9e_Te-10" value="" style="endArrow=classic;html=1;rounded=0;" edge="1" parent="1">
          <mxGeometry width="50" height="50" relative="1" as="geometry">
            <mxPoint x="730" y="565" as="sourcePoint" />
            <mxPoint x="730" y="545" as="targetPoint" />
            <Array as="points">
              <mxPoint x="730" y="565" />
            </Array>
          </mxGeometry>
        </mxCell>
        <mxCell id="DwPkwXwsCmRvW5p9e_Te-11" value="R0 = {White, Black, Asian-Pac-Islander, Amer-Indian-Eskimo, Other}" style="text;html=1;align=left;verticalAlign=middle;whiteSpace=wrap;rounded=0;" vertex="1" parent="1">
          <mxGeometry x="960" y="440" width="370" height="30" as="geometry" />
        </mxCell>
        <mxCell id="DwPkwXwsCmRvW5p9e_Te-12" value="R1 = {White, Black, Asian-Pac-Islander, Amer-Indian-Eskimo+Other}" style="text;html=1;align=left;verticalAlign=middle;whiteSpace=wrap;rounded=0;" vertex="1" parent="1">
          <mxGeometry x="960" y="400" width="370" height="30" as="geometry" />
        </mxCell>
        <mxCell id="DwPkwXwsCmRvW5p9e_Te-13" value="R2 = {White, Non-white}" style="text;html=1;align=left;verticalAlign=middle;whiteSpace=wrap;rounded=0;" vertex="1" parent="1">
          <mxGeometry x="960" y="360" width="370" height="30" as="geometry" />
        </mxCell>
        <mxCell id="DwPkwXwsCmRvW5p9e_Te-14" value="R3 = { * }" style="text;html=1;align=left;verticalAlign=middle;whiteSpace=wrap;rounded=0;" vertex="1" parent="1">
          <mxGeometry x="960" y="320" width="250" height="30" as="geometry" />
        </mxCell>
        <mxCell id="DwPkwXwsCmRvW5p9e_Te-15" value="" style="endArrow=classic;html=1;rounded=0;" edge="1" parent="1">
          <mxGeometry width="50" height="50" relative="1" as="geometry">
            <mxPoint x="970" y="366" as="sourcePoint" />
            <mxPoint x="970" y="346" as="targetPoint" />
            <Array as="points">
              <mxPoint x="970" y="366" />
            </Array>
          </mxGeometry>
        </mxCell>
        <mxCell id="DwPkwXwsCmRvW5p9e_Te-16" value="" style="endArrow=classic;html=1;rounded=0;" edge="1" parent="1">
          <mxGeometry width="50" height="50" relative="1" as="geometry">
            <mxPoint x="970" y="405" as="sourcePoint" />
            <mxPoint x="970" y="385" as="targetPoint" />
            <Array as="points">
              <mxPoint x="970" y="405" />
            </Array>
          </mxGeometry>
        </mxCell>
        <mxCell id="DwPkwXwsCmRvW5p9e_Te-17" value="" style="endArrow=classic;html=1;rounded=0;" edge="1" parent="1">
          <mxGeometry width="50" height="50" relative="1" as="geometry">
            <mxPoint x="970" y="445" as="sourcePoint" />
            <mxPoint x="970" y="425" as="targetPoint" />
            <Array as="points">
              <mxPoint x="970" y="445" />
            </Array>
          </mxGeometry>
        </mxCell>
        <mxCell id="DwPkwXwsCmRvW5p9e_Te-18" value="M0 = {Married-civ-spouse, Divorced, Never-married, Separated, Widowed&lt;div&gt;&amp;nbsp; &amp;nbsp; &amp;nbsp; &amp;nbsp; &amp;nbsp; Married-spouse-absent, Married-AF-spouse}&lt;/div&gt;" style="text;html=1;align=left;verticalAlign=middle;whiteSpace=wrap;rounded=0;" vertex="1" parent="1">
          <mxGeometry x="960" y="646" width="400" height="30" as="geometry" />
        </mxCell>
        <mxCell id="DwPkwXwsCmRvW5p9e_Te-19" value="M1 = {Married, Previously-married, Never-married}" style="text;html=1;align=left;verticalAlign=middle;whiteSpace=wrap;rounded=0;" vertex="1" parent="1">
          <mxGeometry x="960" y="600" width="370" height="30" as="geometry" />
        </mxCell>
        <mxCell id="DwPkwXwsCmRvW5p9e_Te-20" value="M2 = {Married, Not-married}" style="text;html=1;align=left;verticalAlign=middle;whiteSpace=wrap;rounded=0;" vertex="1" parent="1">
          <mxGeometry x="960" y="560" width="370" height="30" as="geometry" />
        </mxCell>
        <mxCell id="DwPkwXwsCmRvW5p9e_Te-21" value="M3 = { * }" style="text;html=1;align=left;verticalAlign=middle;whiteSpace=wrap;rounded=0;" vertex="1" parent="1">
          <mxGeometry x="960" y="520" width="250" height="30" as="geometry" />
        </mxCell>
        <mxCell id="DwPkwXwsCmRvW5p9e_Te-22" value="" style="endArrow=classic;html=1;rounded=0;" edge="1" parent="1">
          <mxGeometry width="50" height="50" relative="1" as="geometry">
            <mxPoint x="970" y="566" as="sourcePoint" />
            <mxPoint x="970" y="546" as="targetPoint" />
            <Array as="points">
              <mxPoint x="970" y="566" />
            </Array>
          </mxGeometry>
        </mxCell>
        <mxCell id="DwPkwXwsCmRvW5p9e_Te-23" value="" style="endArrow=classic;html=1;rounded=0;" edge="1" parent="1">
          <mxGeometry width="50" height="50" relative="1" as="geometry">
            <mxPoint x="970" y="605" as="sourcePoint" />
            <mxPoint x="970" y="585" as="targetPoint" />
            <Array as="points">
              <mxPoint x="970" y="605" />
            </Array>
          </mxGeometry>
        </mxCell>
        <mxCell id="DwPkwXwsCmRvW5p9e_Te-24" value="" style="endArrow=classic;html=1;rounded=0;" edge="1" parent="1">
          <mxGeometry width="50" height="50" relative="1" as="geometry">
            <mxPoint x="970" y="645" as="sourcePoint" />
            <mxPoint x="970" y="625" as="targetPoint" />
            <Array as="points">
              <mxPoint x="970" y="645" />
            </Array>
          </mxGeometry>
        </mxCell>
        <mxCell id="DwPkwXwsCmRvW5p9e_Te-25" value="*" style="text;html=1;align=center;verticalAlign=middle;whiteSpace=wrap;rounded=0;" vertex="1" parent="1">
          <mxGeometry x="290" y="380" width="60" height="30" as="geometry" />
        </mxCell>
        <mxCell id="DwPkwXwsCmRvW5p9e_Te-26" value="1-50" style="text;html=1;align=center;verticalAlign=middle;whiteSpace=wrap;rounded=0;" vertex="1" parent="1">
          <mxGeometry x="180" y="440" width="60" height="30" as="geometry" />
        </mxCell>
        <mxCell id="DwPkwXwsCmRvW5p9e_Te-27" value="51-100" style="text;html=1;align=center;verticalAlign=middle;whiteSpace=wrap;rounded=0;" vertex="1" parent="1">
          <mxGeometry x="390" y="440" width="60" height="30" as="geometry" />
        </mxCell>
        <mxCell id="DwPkwXwsCmRvW5p9e_Te-28" value="1-25" style="text;html=1;align=center;verticalAlign=middle;whiteSpace=wrap;rounded=0;" vertex="1" parent="1">
          <mxGeometry x="140" y="480" width="60" height="30" as="geometry" />
        </mxCell>
        <mxCell id="DwPkwXwsCmRvW5p9e_Te-29" value="26-50" style="text;html=1;align=center;verticalAlign=middle;whiteSpace=wrap;rounded=0;" vertex="1" parent="1">
          <mxGeometry x="220" y="480" width="60" height="30" as="geometry" />
        </mxCell>
        <mxCell id="DwPkwXwsCmRvW5p9e_Te-30" value="51-75" style="text;html=1;align=center;verticalAlign=middle;whiteSpace=wrap;rounded=0;" vertex="1" parent="1">
          <mxGeometry x="340" y="480" width="60" height="30" as="geometry" />
        </mxCell>
        <mxCell id="DwPkwXwsCmRvW5p9e_Te-31" value="76-100" style="text;html=1;align=center;verticalAlign=middle;whiteSpace=wrap;rounded=0;" vertex="1" parent="1">
          <mxGeometry x="457.5" y="480" width="60" height="30" as="geometry" />
        </mxCell>
        <mxCell id="DwPkwXwsCmRvW5p9e_Te-32" value="1, 2, 3, ..., 25" style="text;html=1;align=center;verticalAlign=middle;whiteSpace=wrap;rounded=0;" vertex="1" parent="1">
          <mxGeometry x="80" y="520" width="90" height="30" as="geometry" />
        </mxCell>
        <mxCell id="DwPkwXwsCmRvW5p9e_Te-33" value="26, 27, 28, ..., 50" style="text;html=1;align=center;verticalAlign=middle;whiteSpace=wrap;rounded=0;" vertex="1" parent="1">
          <mxGeometry x="202.5" y="520" width="95" height="30" as="geometry" />
        </mxCell>
        <mxCell id="DwPkwXwsCmRvW5p9e_Te-34" value="51, 52, 53, ..., 75" style="text;html=1;align=center;verticalAlign=middle;whiteSpace=wrap;rounded=0;" vertex="1" parent="1">
          <mxGeometry x="322.5" y="520" width="95" height="30" as="geometry" />
        </mxCell>
        <mxCell id="DwPkwXwsCmRvW5p9e_Te-35" value="71, 72, 73, ..., 100" style="text;html=1;align=center;verticalAlign=middle;whiteSpace=wrap;rounded=0;" vertex="1" parent="1">
          <mxGeometry x="437.5" y="520" width="100" height="30" as="geometry" />
        </mxCell>
        <mxCell id="DwPkwXwsCmRvW5p9e_Te-36" value="" style="endArrow=classic;html=1;rounded=0;strokeWidth=1;entryX=0.5;entryY=1;entryDx=0;entryDy=0;" edge="1" parent="1" target="DwPkwXwsCmRvW5p9e_Te-28">
          <mxGeometry width="50" height="50" relative="1" as="geometry">
            <mxPoint x="130" y="530" as="sourcePoint" />
            <mxPoint x="180" y="480" as="targetPoint" />
          </mxGeometry>
        </mxCell>
        <mxCell id="DwPkwXwsCmRvW5p9e_Te-37" value="" style="endArrow=classic;html=1;rounded=0;strokeWidth=1;entryX=0.5;entryY=1;entryDx=0;entryDy=0;exitX=0.5;exitY=0;exitDx=0;exitDy=0;" edge="1" parent="1" source="DwPkwXwsCmRvW5p9e_Te-33" target="DwPkwXwsCmRvW5p9e_Te-29">
          <mxGeometry width="50" height="50" relative="1" as="geometry">
            <mxPoint x="200" y="600" as="sourcePoint" />
            <mxPoint x="240" y="580" as="targetPoint" />
          </mxGeometry>
        </mxCell>
        <mxCell id="DwPkwXwsCmRvW5p9e_Te-38" value="" style="endArrow=classic;html=1;rounded=0;strokeWidth=1;entryX=0.5;entryY=1;entryDx=0;entryDy=0;" edge="1" parent="1" target="DwPkwXwsCmRvW5p9e_Te-30">
          <mxGeometry width="50" height="50" relative="1" as="geometry">
            <mxPoint x="370" y="520" as="sourcePoint" />
            <mxPoint x="420" y="590" as="targetPoint" />
          </mxGeometry>
        </mxCell>
        <mxCell id="DwPkwXwsCmRvW5p9e_Te-39" value="" style="endArrow=classic;html=1;rounded=0;strokeWidth=1;entryX=0.5;entryY=1;entryDx=0;entryDy=0;exitX=0.5;exitY=0;exitDx=0;exitDy=0;" edge="1" parent="1" source="DwPkwXwsCmRvW5p9e_Te-35" target="DwPkwXwsCmRvW5p9e_Te-31">
          <mxGeometry width="50" height="50" relative="1" as="geometry">
            <mxPoint x="460" y="600" as="sourcePoint" />
            <mxPoint x="500" y="580" as="targetPoint" />
          </mxGeometry>
        </mxCell>
        <mxCell id="DwPkwXwsCmRvW5p9e_Te-40" value="" style="endArrow=classic;html=1;rounded=0;strokeWidth=1;entryX=0.5;entryY=1;entryDx=0;entryDy=0;exitX=0.5;exitY=0;exitDx=0;exitDy=0;" edge="1" parent="1" source="DwPkwXwsCmRvW5p9e_Te-28" target="DwPkwXwsCmRvW5p9e_Te-26">
          <mxGeometry width="50" height="50" relative="1" as="geometry">
            <mxPoint x="490" y="610" as="sourcePoint" />
            <mxPoint x="530" y="590" as="targetPoint" />
          </mxGeometry>
        </mxCell>
        <mxCell id="DwPkwXwsCmRvW5p9e_Te-41" value="" style="endArrow=classic;html=1;rounded=0;strokeWidth=1;entryX=0.5;entryY=1;entryDx=0;entryDy=0;exitX=0.5;exitY=0;exitDx=0;exitDy=0;" edge="1" parent="1" source="DwPkwXwsCmRvW5p9e_Te-29" target="DwPkwXwsCmRvW5p9e_Te-26">
          <mxGeometry width="50" height="50" relative="1" as="geometry">
            <mxPoint x="280" y="480" as="sourcePoint" />
            <mxPoint x="320" y="460" as="targetPoint" />
          </mxGeometry>
        </mxCell>
        <mxCell id="DwPkwXwsCmRvW5p9e_Te-42" value="" style="endArrow=classic;html=1;rounded=0;strokeWidth=1;entryX=0.5;entryY=1;entryDx=0;entryDy=0;exitX=0.5;exitY=0;exitDx=0;exitDy=0;" edge="1" parent="1" source="DwPkwXwsCmRvW5p9e_Te-30" target="DwPkwXwsCmRvW5p9e_Te-27">
          <mxGeometry width="50" height="50" relative="1" as="geometry">
            <mxPoint x="360" y="480" as="sourcePoint" />
            <mxPoint x="400" y="460" as="targetPoint" />
          </mxGeometry>
        </mxCell>
        <mxCell id="DwPkwXwsCmRvW5p9e_Te-43" value="" style="endArrow=classic;html=1;rounded=0;strokeWidth=1;entryX=0.5;entryY=1;entryDx=0;entryDy=0;exitX=0.5;exitY=0;exitDx=0;exitDy=0;" edge="1" parent="1" source="DwPkwXwsCmRvW5p9e_Te-31" target="DwPkwXwsCmRvW5p9e_Te-27">
          <mxGeometry width="50" height="50" relative="1" as="geometry">
            <mxPoint x="460" y="480" as="sourcePoint" />
            <mxPoint x="500" y="460" as="targetPoint" />
          </mxGeometry>
        </mxCell>
        <mxCell id="DwPkwXwsCmRvW5p9e_Te-44" value="" style="endArrow=classic;html=1;rounded=0;strokeWidth=1;entryX=0.5;entryY=1;entryDx=0;entryDy=0;exitX=0.5;exitY=0;exitDx=0;exitDy=0;" edge="1" parent="1" source="DwPkwXwsCmRvW5p9e_Te-26" target="DwPkwXwsCmRvW5p9e_Te-25">
          <mxGeometry width="50" height="50" relative="1" as="geometry">
            <mxPoint x="330" y="430" as="sourcePoint" />
            <mxPoint x="370" y="410" as="targetPoint" />
          </mxGeometry>
        </mxCell>
        <mxCell id="DwPkwXwsCmRvW5p9e_Te-45" value="" style="endArrow=classic;html=1;rounded=0;strokeWidth=1;entryX=0.5;entryY=1;entryDx=0;entryDy=0;exitX=0.5;exitY=0;exitDx=0;exitDy=0;" edge="1" parent="1" source="DwPkwXwsCmRvW5p9e_Te-27" target="DwPkwXwsCmRvW5p9e_Te-25">
          <mxGeometry width="50" height="50" relative="1" as="geometry">
            <mxPoint x="400" y="460" as="sourcePoint" />
            <mxPoint x="440" y="440" as="targetPoint" />
          </mxGeometry>
        </mxCell>
        <mxCell id="DwPkwXwsCmRvW5p9e_Te-46" value="*" style="text;html=1;align=center;verticalAlign=middle;whiteSpace=wrap;rounded=0;" vertex="1" parent="1">
          <mxGeometry x="190" y="580" width="60" height="30" as="geometry" />
        </mxCell>
        <mxCell id="DwPkwXwsCmRvW5p9e_Te-47" value="Female" style="text;html=1;align=center;verticalAlign=middle;whiteSpace=wrap;rounded=0;" vertex="1" parent="1">
          <mxGeometry x="80" y="640" width="60" height="30" as="geometry" />
        </mxCell>
        <mxCell id="DwPkwXwsCmRvW5p9e_Te-48" value="Male" style="text;html=1;align=center;verticalAlign=middle;whiteSpace=wrap;rounded=0;" vertex="1" parent="1">
          <mxGeometry x="290" y="640" width="60" height="30" as="geometry" />
        </mxCell>
        <mxCell id="DwPkwXwsCmRvW5p9e_Te-49" value="" style="endArrow=classic;html=1;rounded=0;strokeWidth=1;entryX=0.5;entryY=1;entryDx=0;entryDy=0;exitX=0.5;exitY=0;exitDx=0;exitDy=0;" edge="1" parent="1" source="DwPkwXwsCmRvW5p9e_Te-47" target="DwPkwXwsCmRvW5p9e_Te-46">
          <mxGeometry width="50" height="50" relative="1" as="geometry">
            <mxPoint x="230" y="630" as="sourcePoint" />
            <mxPoint x="270" y="610" as="targetPoint" />
          </mxGeometry>
        </mxCell>
        <mxCell id="DwPkwXwsCmRvW5p9e_Te-50" value="" style="endArrow=classic;html=1;rounded=0;strokeWidth=1;entryX=0.5;entryY=1;entryDx=0;entryDy=0;exitX=0.5;exitY=0;exitDx=0;exitDy=0;" edge="1" parent="1" source="DwPkwXwsCmRvW5p9e_Te-48" target="DwPkwXwsCmRvW5p9e_Te-46">
          <mxGeometry width="50" height="50" relative="1" as="geometry">
            <mxPoint x="300" y="660" as="sourcePoint" />
            <mxPoint x="340" y="640" as="targetPoint" />
          </mxGeometry>
        </mxCell>
        <mxCell id="DwPkwXwsCmRvW5p9e_Te-51" value="White" style="text;html=1;align=center;verticalAlign=middle;whiteSpace=wrap;rounded=0;" vertex="1" parent="1">
          <mxGeometry x="80" y="890" width="60" height="30" as="geometry" />
        </mxCell>
        <mxCell id="DwPkwXwsCmRvW5p9e_Te-52" value="Asian-Pac-Islander" style="text;html=1;align=center;verticalAlign=middle;whiteSpace=wrap;rounded=0;" vertex="1" parent="1">
          <mxGeometry x="240" y="890" width="110" height="30" as="geometry" />
        </mxCell>
        <mxCell id="DwPkwXwsCmRvW5p9e_Te-53" value="Other" style="text;html=1;align=center;verticalAlign=middle;whiteSpace=wrap;rounded=0;" vertex="1" parent="1">
          <mxGeometry x="520" y="890" width="60" height="30" as="geometry" />
        </mxCell>
        <mxCell id="DwPkwXwsCmRvW5p9e_Te-54" value="Amer-Indian-Eskimo" style="text;html=1;align=center;verticalAlign=middle;whiteSpace=wrap;rounded=0;" vertex="1" parent="1">
          <mxGeometry x="360" y="890" width="120" height="30" as="geometry" />
        </mxCell>
        <mxCell id="DwPkwXwsCmRvW5p9e_Te-55" value="Black" style="text;html=1;align=center;verticalAlign=middle;whiteSpace=wrap;rounded=0;" vertex="1" parent="1">
          <mxGeometry x="160" y="890" width="60" height="30" as="geometry" />
        </mxCell>
        <mxCell id="DwPkwXwsCmRvW5p9e_Te-56" value="White" style="text;html=1;align=center;verticalAlign=middle;whiteSpace=wrap;rounded=0;" vertex="1" parent="1">
          <mxGeometry x="80" y="820" width="60" height="30" as="geometry" />
        </mxCell>
        <mxCell id="DwPkwXwsCmRvW5p9e_Te-57" value="Amer-Indian-Eskimo + Other" style="text;html=1;align=center;verticalAlign=middle;whiteSpace=wrap;rounded=0;" vertex="1" parent="1">
          <mxGeometry x="400" y="820" width="160" height="30" as="geometry" />
        </mxCell>
        <mxCell id="DwPkwXwsCmRvW5p9e_Te-58" value="Asian-Pac-Islander" style="text;html=1;align=center;verticalAlign=middle;whiteSpace=wrap;rounded=0;" vertex="1" parent="1">
          <mxGeometry x="238.75" y="820" width="112.5" height="30" as="geometry" />
        </mxCell>
        <mxCell id="DwPkwXwsCmRvW5p9e_Te-59" value="Black" style="text;html=1;align=center;verticalAlign=middle;whiteSpace=wrap;rounded=0;" vertex="1" parent="1">
          <mxGeometry x="160" y="820" width="60" height="30" as="geometry" />
        </mxCell>
        <mxCell id="DwPkwXwsCmRvW5p9e_Te-60" value="White" style="text;html=1;align=center;verticalAlign=middle;whiteSpace=wrap;rounded=0;" vertex="1" parent="1">
          <mxGeometry x="80" y="770" width="60" height="30" as="geometry" />
        </mxCell>
        <mxCell id="DwPkwXwsCmRvW5p9e_Te-61" value="Non-white" style="text;html=1;align=center;verticalAlign=middle;whiteSpace=wrap;rounded=0;" vertex="1" parent="1">
          <mxGeometry x="357.5" y="770" width="60" height="30" as="geometry" />
        </mxCell>
        <mxCell id="DwPkwXwsCmRvW5p9e_Te-62" value="" style="endArrow=classic;html=1;rounded=0;entryX=0.5;entryY=1;entryDx=0;entryDy=0;exitX=0.5;exitY=0;exitDx=0;exitDy=0;" edge="1" parent="1" source="DwPkwXwsCmRvW5p9e_Te-51" target="DwPkwXwsCmRvW5p9e_Te-56">
          <mxGeometry width="50" height="50" relative="1" as="geometry">
            <mxPoint x="10" y="910" as="sourcePoint" />
            <mxPoint x="60" y="860" as="targetPoint" />
          </mxGeometry>
        </mxCell>
        <mxCell id="DwPkwXwsCmRvW5p9e_Te-63" value="*" style="text;html=1;align=center;verticalAlign=middle;whiteSpace=wrap;rounded=0;" vertex="1" parent="1">
          <mxGeometry x="200" y="700" width="60" height="30" as="geometry" />
        </mxCell>
        <mxCell id="DwPkwXwsCmRvW5p9e_Te-64" value="" style="endArrow=classic;html=1;rounded=0;entryX=0.5;entryY=1;entryDx=0;entryDy=0;exitX=0.5;exitY=0;exitDx=0;exitDy=0;" edge="1" parent="1" source="DwPkwXwsCmRvW5p9e_Te-55" target="DwPkwXwsCmRvW5p9e_Te-59">
          <mxGeometry width="50" height="50" relative="1" as="geometry">
            <mxPoint x="130" y="920" as="sourcePoint" />
            <mxPoint x="180" y="870" as="targetPoint" />
          </mxGeometry>
        </mxCell>
        <mxCell id="DwPkwXwsCmRvW5p9e_Te-65" value="" style="endArrow=classic;html=1;rounded=0;entryX=0.5;entryY=1;entryDx=0;entryDy=0;exitX=0.5;exitY=0;exitDx=0;exitDy=0;" edge="1" parent="1" source="DwPkwXwsCmRvW5p9e_Te-52" target="DwPkwXwsCmRvW5p9e_Te-58">
          <mxGeometry width="50" height="50" relative="1" as="geometry">
            <mxPoint x="260" y="920" as="sourcePoint" />
            <mxPoint x="310" y="870" as="targetPoint" />
          </mxGeometry>
        </mxCell>
        <mxCell id="DwPkwXwsCmRvW5p9e_Te-66" value="" style="endArrow=classic;html=1;rounded=0;entryX=0.5;entryY=1;entryDx=0;entryDy=0;exitX=0.5;exitY=0;exitDx=0;exitDy=0;" edge="1" parent="1" source="DwPkwXwsCmRvW5p9e_Te-54" target="DwPkwXwsCmRvW5p9e_Te-57">
          <mxGeometry width="50" height="50" relative="1" as="geometry">
            <mxPoint x="390" y="910" as="sourcePoint" />
            <mxPoint x="440" y="860" as="targetPoint" />
          </mxGeometry>
        </mxCell>
        <mxCell id="DwPkwXwsCmRvW5p9e_Te-67" value="" style="endArrow=classic;html=1;rounded=0;entryX=0.5;entryY=1;entryDx=0;entryDy=0;exitX=0.5;exitY=0;exitDx=0;exitDy=0;" edge="1" parent="1" source="DwPkwXwsCmRvW5p9e_Te-53" target="DwPkwXwsCmRvW5p9e_Te-57">
          <mxGeometry width="50" height="50" relative="1" as="geometry">
            <mxPoint x="540" y="910" as="sourcePoint" />
            <mxPoint x="590" y="860" as="targetPoint" />
          </mxGeometry>
        </mxCell>
        <mxCell id="DwPkwXwsCmRvW5p9e_Te-68" value="" style="endArrow=classic;html=1;rounded=0;entryX=0.5;entryY=1;entryDx=0;entryDy=0;exitX=0.5;exitY=0;exitDx=0;exitDy=0;" edge="1" parent="1" source="DwPkwXwsCmRvW5p9e_Te-57" target="DwPkwXwsCmRvW5p9e_Te-61">
          <mxGeometry width="50" height="50" relative="1" as="geometry">
            <mxPoint x="510" y="900" as="sourcePoint" />
            <mxPoint x="560" y="850" as="targetPoint" />
          </mxGeometry>
        </mxCell>
        <mxCell id="DwPkwXwsCmRvW5p9e_Te-69" value="" style="endArrow=classic;html=1;rounded=0;exitX=0.5;exitY=0;exitDx=0;exitDy=0;entryX=0.5;entryY=1;entryDx=0;entryDy=0;" edge="1" parent="1" source="DwPkwXwsCmRvW5p9e_Te-58" target="DwPkwXwsCmRvW5p9e_Te-61">
          <mxGeometry width="50" height="50" relative="1" as="geometry">
            <mxPoint x="320" y="860" as="sourcePoint" />
            <mxPoint x="370" y="810" as="targetPoint" />
          </mxGeometry>
        </mxCell>
        <mxCell id="DwPkwXwsCmRvW5p9e_Te-70" value="" style="endArrow=classic;html=1;rounded=0;entryX=0.5;entryY=1;entryDx=0;entryDy=0;exitX=0.5;exitY=0;exitDx=0;exitDy=0;" edge="1" parent="1" source="DwPkwXwsCmRvW5p9e_Te-56" target="DwPkwXwsCmRvW5p9e_Te-60">
          <mxGeometry width="50" height="50" relative="1" as="geometry">
            <mxPoint x="170" y="910" as="sourcePoint" />
            <mxPoint x="220" y="860" as="targetPoint" />
          </mxGeometry>
        </mxCell>
        <mxCell id="DwPkwXwsCmRvW5p9e_Te-71" value="" style="endArrow=classic;html=1;rounded=0;entryX=0.5;entryY=1;entryDx=0;entryDy=0;exitX=0.5;exitY=0;exitDx=0;exitDy=0;" edge="1" parent="1" source="DwPkwXwsCmRvW5p9e_Te-59" target="DwPkwXwsCmRvW5p9e_Te-61">
          <mxGeometry width="50" height="50" relative="1" as="geometry">
            <mxPoint x="120" y="900" as="sourcePoint" />
            <mxPoint x="170" y="850" as="targetPoint" />
          </mxGeometry>
        </mxCell>
        <mxCell id="DwPkwXwsCmRvW5p9e_Te-72" value="" style="endArrow=classic;html=1;rounded=0;entryX=0.5;entryY=1;entryDx=0;entryDy=0;exitX=0.5;exitY=0;exitDx=0;exitDy=0;" edge="1" parent="1" source="DwPkwXwsCmRvW5p9e_Te-60" target="DwPkwXwsCmRvW5p9e_Te-63">
          <mxGeometry width="50" height="50" relative="1" as="geometry">
            <mxPoint x="170" y="850" as="sourcePoint" />
            <mxPoint x="220" y="800" as="targetPoint" />
          </mxGeometry>
        </mxCell>
        <mxCell id="DwPkwXwsCmRvW5p9e_Te-73" value="" style="endArrow=classic;html=1;rounded=0;entryX=0.5;entryY=1;entryDx=0;entryDy=0;exitX=0.5;exitY=0;exitDx=0;exitDy=0;" edge="1" parent="1" source="DwPkwXwsCmRvW5p9e_Te-61" target="DwPkwXwsCmRvW5p9e_Te-63">
          <mxGeometry width="50" height="50" relative="1" as="geometry">
            <mxPoint x="320" y="810" as="sourcePoint" />
            <mxPoint x="370" y="760" as="targetPoint" />
          </mxGeometry>
        </mxCell>
        <mxCell id="DwPkwXwsCmRvW5p9e_Te-75" value="Married-civ-spouse" style="text;html=1;align=center;verticalAlign=middle;whiteSpace=wrap;rounded=0;" vertex="1" parent="1">
          <mxGeometry x="680" y="890" width="110" height="30" as="geometry" />
        </mxCell>
        <mxCell id="DwPkwXwsCmRvW5p9e_Te-76" value="Never-married" style="text;html=1;align=center;verticalAlign=middle;whiteSpace=wrap;rounded=0;" vertex="1" parent="1">
          <mxGeometry x="1390" y="890" width="80" height="30" as="geometry" />
        </mxCell>
        <mxCell id="DwPkwXwsCmRvW5p9e_Te-77" value="Widowed" style="text;html=1;align=center;verticalAlign=middle;whiteSpace=wrap;rounded=0;" vertex="1" parent="1">
          <mxGeometry x="1140" y="890" width="60" height="30" as="geometry" />
        </mxCell>
        <mxCell id="DwPkwXwsCmRvW5p9e_Te-78" value="Separated" style="text;html=1;align=center;verticalAlign=middle;whiteSpace=wrap;rounded=0;" vertex="1" parent="1">
          <mxGeometry x="1050" y="890" width="60" height="30" as="geometry" />
        </mxCell>
        <mxCell id="DwPkwXwsCmRvW5p9e_Te-79" value="Divorced" style="text;html=1;align=center;verticalAlign=middle;whiteSpace=wrap;rounded=0;" vertex="1" parent="1">
          <mxGeometry x="960" y="890" width="60" height="30" as="geometry" />
        </mxCell>
        <mxCell id="DwPkwXwsCmRvW5p9e_Te-80" value="Married-spouse-absent" style="text;html=1;align=center;verticalAlign=middle;whiteSpace=wrap;rounded=0;" vertex="1" parent="1">
          <mxGeometry x="1230" y="890" width="130" height="30" as="geometry" />
        </mxCell>
        <mxCell id="DwPkwXwsCmRvW5p9e_Te-81" value="Married-AF-spouse" style="text;html=1;align=center;verticalAlign=middle;whiteSpace=wrap;rounded=0;" vertex="1" parent="1">
          <mxGeometry x="820" y="890" width="110" height="30" as="geometry" />
        </mxCell>
        <mxCell id="DwPkwXwsCmRvW5p9e_Te-82" value="&lt;span style=&quot;text-align: left;&quot;&gt;Married&lt;/span&gt;" style="text;html=1;align=center;verticalAlign=middle;whiteSpace=wrap;rounded=0;" vertex="1" parent="1">
          <mxGeometry x="780" y="840" width="50" height="30" as="geometry" />
        </mxCell>
        <mxCell id="DwPkwXwsCmRvW5p9e_Te-83" value="&lt;span style=&quot;text-align: left;&quot;&gt;Previously-married&lt;/span&gt;" style="text;html=1;align=center;verticalAlign=middle;whiteSpace=wrap;rounded=0;" vertex="1" parent="1">
          <mxGeometry x="1105" y="840" width="110" height="30" as="geometry" />
        </mxCell>
        <mxCell id="DwPkwXwsCmRvW5p9e_Te-84" value="&lt;span style=&quot;text-align: left;&quot;&gt;Never-married&lt;/span&gt;" style="text;html=1;align=center;verticalAlign=middle;whiteSpace=wrap;rounded=0;" vertex="1" parent="1">
          <mxGeometry x="1390" y="840" width="80" height="30" as="geometry" />
        </mxCell>
        <mxCell id="DwPkwXwsCmRvW5p9e_Te-85" value="&lt;span style=&quot;text-align: left;&quot;&gt;Married&lt;/span&gt;" style="text;html=1;align=center;verticalAlign=middle;whiteSpace=wrap;rounded=0;" vertex="1" parent="1">
          <mxGeometry x="930" y="770" width="50" height="30" as="geometry" />
        </mxCell>
        <mxCell id="DwPkwXwsCmRvW5p9e_Te-86" value="&lt;span style=&quot;text-align: left;&quot;&gt;Not-married&lt;/span&gt;" style="text;html=1;align=center;verticalAlign=middle;whiteSpace=wrap;rounded=0;" vertex="1" parent="1">
          <mxGeometry x="1290" y="770" width="70" height="30" as="geometry" />
        </mxCell>
        <mxCell id="DwPkwXwsCmRvW5p9e_Te-87" value="*" style="text;html=1;align=center;verticalAlign=middle;whiteSpace=wrap;rounded=0;" vertex="1" parent="1">
          <mxGeometry x="1080" y="720" width="60" height="30" as="geometry" />
        </mxCell>
        <mxCell id="DwPkwXwsCmRvW5p9e_Te-89" value="" style="endArrow=classic;html=1;rounded=0;exitX=0.5;exitY=0;exitDx=0;exitDy=0;entryX=0.5;entryY=1;entryDx=0;entryDy=0;" edge="1" parent="1" source="DwPkwXwsCmRvW5p9e_Te-75" target="DwPkwXwsCmRvW5p9e_Te-82">
          <mxGeometry width="50" height="50" relative="1" as="geometry">
            <mxPoint x="670" y="820" as="sourcePoint" />
            <mxPoint x="720" y="770" as="targetPoint" />
          </mxGeometry>
        </mxCell>
        <mxCell id="DwPkwXwsCmRvW5p9e_Te-90" value="" style="endArrow=classic;html=1;rounded=0;entryX=0.5;entryY=1;entryDx=0;entryDy=0;exitX=0.5;exitY=0;exitDx=0;exitDy=0;" edge="1" parent="1" source="DwPkwXwsCmRvW5p9e_Te-81" target="DwPkwXwsCmRvW5p9e_Te-82">
          <mxGeometry width="50" height="50" relative="1" as="geometry">
            <mxPoint x="900" y="970" as="sourcePoint" />
            <mxPoint x="950" y="920" as="targetPoint" />
          </mxGeometry>
        </mxCell>
        <mxCell id="DwPkwXwsCmRvW5p9e_Te-91" value="" style="endArrow=classic;html=1;rounded=0;entryX=0.5;entryY=1;entryDx=0;entryDy=0;exitX=0.5;exitY=0;exitDx=0;exitDy=0;" edge="1" parent="1" source="DwPkwXwsCmRvW5p9e_Te-79" target="DwPkwXwsCmRvW5p9e_Te-83">
          <mxGeometry width="50" height="50" relative="1" as="geometry">
            <mxPoint x="1030" y="1000" as="sourcePoint" />
            <mxPoint x="960" y="980" as="targetPoint" />
          </mxGeometry>
        </mxCell>
        <mxCell id="DwPkwXwsCmRvW5p9e_Te-92" value="" style="endArrow=classic;html=1;rounded=0;entryX=0.5;entryY=1;entryDx=0;entryDy=0;exitX=0.5;exitY=0;exitDx=0;exitDy=0;" edge="1" parent="1" source="DwPkwXwsCmRvW5p9e_Te-78" target="DwPkwXwsCmRvW5p9e_Te-83">
          <mxGeometry width="50" height="50" relative="1" as="geometry">
            <mxPoint x="1200" y="970" as="sourcePoint" />
            <mxPoint x="1130" y="950" as="targetPoint" />
          </mxGeometry>
        </mxCell>
        <mxCell id="DwPkwXwsCmRvW5p9e_Te-93" value="" style="endArrow=classic;html=1;rounded=0;entryX=0.5;entryY=1;entryDx=0;entryDy=0;exitX=0.5;exitY=0;exitDx=0;exitDy=0;" edge="1" parent="1" source="DwPkwXwsCmRvW5p9e_Te-77" target="DwPkwXwsCmRvW5p9e_Te-83">
          <mxGeometry width="50" height="50" relative="1" as="geometry">
            <mxPoint x="1250" y="960" as="sourcePoint" />
            <mxPoint x="1180" y="940" as="targetPoint" />
          </mxGeometry>
        </mxCell>
        <mxCell id="DwPkwXwsCmRvW5p9e_Te-94" value="" style="endArrow=classic;html=1;rounded=0;entryX=0.5;entryY=1;entryDx=0;entryDy=0;exitX=0.5;exitY=0;exitDx=0;exitDy=0;" edge="1" parent="1" source="DwPkwXwsCmRvW5p9e_Te-80" target="DwPkwXwsCmRvW5p9e_Te-83">
          <mxGeometry width="50" height="50" relative="1" as="geometry">
            <mxPoint x="1300" y="950" as="sourcePoint" />
            <mxPoint x="1230" y="930" as="targetPoint" />
          </mxGeometry>
        </mxCell>
        <mxCell id="DwPkwXwsCmRvW5p9e_Te-95" value="" style="endArrow=classic;html=1;rounded=0;entryX=0.5;entryY=1;entryDx=0;entryDy=0;exitX=0.5;exitY=0;exitDx=0;exitDy=0;" edge="1" parent="1" source="DwPkwXwsCmRvW5p9e_Te-76" target="DwPkwXwsCmRvW5p9e_Te-84">
          <mxGeometry width="50" height="50" relative="1" as="geometry">
            <mxPoint x="1510" y="920" as="sourcePoint" />
            <mxPoint x="1440" y="900" as="targetPoint" />
          </mxGeometry>
        </mxCell>
        <mxCell id="DwPkwXwsCmRvW5p9e_Te-96" value="" style="endArrow=classic;html=1;rounded=0;entryX=0.5;entryY=1;entryDx=0;entryDy=0;exitX=0.5;exitY=0;exitDx=0;exitDy=0;" edge="1" parent="1" source="DwPkwXwsCmRvW5p9e_Te-82" target="DwPkwXwsCmRvW5p9e_Te-85">
          <mxGeometry width="50" height="50" relative="1" as="geometry">
            <mxPoint x="1020" y="900" as="sourcePoint" />
            <mxPoint x="950" y="880" as="targetPoint" />
          </mxGeometry>
        </mxCell>
        <mxCell id="DwPkwXwsCmRvW5p9e_Te-97" value="" style="endArrow=classic;html=1;rounded=0;entryX=0.5;entryY=1;entryDx=0;entryDy=0;exitX=0.5;exitY=0;exitDx=0;exitDy=0;" edge="1" parent="1" source="DwPkwXwsCmRvW5p9e_Te-83" target="DwPkwXwsCmRvW5p9e_Te-86">
          <mxGeometry width="50" height="50" relative="1" as="geometry">
            <mxPoint x="1120" y="850" as="sourcePoint" />
            <mxPoint x="1050" y="830" as="targetPoint" />
          </mxGeometry>
        </mxCell>
        <mxCell id="DwPkwXwsCmRvW5p9e_Te-98" value="" style="endArrow=classic;html=1;rounded=0;entryX=0.5;entryY=1;entryDx=0;entryDy=0;exitX=0.5;exitY=0;exitDx=0;exitDy=0;" edge="1" parent="1" source="DwPkwXwsCmRvW5p9e_Te-84" target="DwPkwXwsCmRvW5p9e_Te-86">
          <mxGeometry width="50" height="50" relative="1" as="geometry">
            <mxPoint x="1530" y="810" as="sourcePoint" />
            <mxPoint x="1460" y="790" as="targetPoint" />
          </mxGeometry>
        </mxCell>
        <mxCell id="DwPkwXwsCmRvW5p9e_Te-99" value="" style="endArrow=classic;html=1;rounded=0;entryX=0.5;entryY=1;entryDx=0;entryDy=0;exitX=0.5;exitY=0;exitDx=0;exitDy=0;" edge="1" parent="1" source="DwPkwXwsCmRvW5p9e_Te-86" target="DwPkwXwsCmRvW5p9e_Te-87">
          <mxGeometry width="50" height="50" relative="1" as="geometry">
            <mxPoint x="1230" y="800" as="sourcePoint" />
            <mxPoint x="1160" y="780" as="targetPoint" />
          </mxGeometry>
        </mxCell>
        <mxCell id="DwPkwXwsCmRvW5p9e_Te-100" value="" style="endArrow=classic;html=1;rounded=0;entryX=0.5;entryY=1;entryDx=0;entryDy=0;exitX=0.5;exitY=0;exitDx=0;exitDy=0;" edge="1" parent="1" source="DwPkwXwsCmRvW5p9e_Te-85" target="DwPkwXwsCmRvW5p9e_Te-87">
          <mxGeometry width="50" height="50" relative="1" as="geometry">
            <mxPoint x="1170" y="810" as="sourcePoint" />
            <mxPoint x="1100" y="790" as="targetPoint" />
          </mxGeometry>
        </mxCell>
      </root>
    </mxGraphModel>
  </diagram>
</mxfile>
